<?xml version="1.0" standalone="no"?>
<!DOCTYPE svg PUBLIC "-//W3C//DTD SVG 20010904//EN"
 "http://www.w3.org/TR/2001/REC-SVG-20010904/DTD/svg10.dtd">
<svg version="1.0" xmlns="http://www.w3.org/2000/svg"
 width="512.000000pt" height="512.000000pt" viewBox="0 0 512.000000 512.000000"
 preserveAspectRatio="xMidYMid meet">

<g transform="translate(0.000000,512.000000) scale(0.100000,-0.100000)"
fill="#000000" stroke="none">
<path d="M3048 5110 c-128 -20 -254 -69 -354 -138 -71 -47 -156 -123 -184
-162 l-20 -29 157 -138 c463 -408 564 -493 567 -481 4 12 48 355 98 755 12
100 20 184 18 187 -10 10 -227 14 -282 6z m167 -127 c-3 -16 -12 -77 -20 -138
-49 -356 -65 -469 -68 -471 -1 -1 -38 29 -82 67 -44 39 -130 113 -192 165 -61
52 -135 116 -164 142 l-53 49 60 47 c126 100 299 165 446 166 l78 0 -5 -27z"/>
<path d="M985 4436 c-141 -36 -229 -149 -229 -296 0 -125 62 -228 173 -282 66
-33 196 -33 262 0 165 81 222 276 129 439 -64 112 -208 172 -335 139z m153
-111 c101 -43 149 -161 107 -262 -21 -50 -41 -71 -97 -99 -88 -45 -188 -21
-252 59 -58 72 -45 198 26 264 54 51 145 67 216 38z"/>
<path d="M3260 4069 c-19 -11 -49 -19 -66 -19 l-31 0 -7 -92 c-3 -50 -6 -133
-6 -185 l0 -93 33 0 c90 0 226 43 308 97 l38 25 -81 106 c-115 151 -141 182
-147 181 -3 -1 -22 -10 -41 -20z"/>
<path d="M4187 3866 c-27 -7 -67 -26 -90 -42 -166 -117 -131 -393 59 -464 174
-65 346 48 362 236 14 175 -161 317 -331 270z"/>
<path d="M4610 3030 l0 -50 80 0 c44 0 80 -3 80 -8 0 -7 -222 -228 -333 -332
l-47 -44 -140 139 c-127 127 -140 137 -157 124 -10 -8 -140 -116 -290 -241
-149 -126 -275 -228 -280 -228 -4 0 -36 28 -70 62 l-63 63 -130 -130 -130
-130 -138 138 -137 137 -280 -280 c-154 -154 -284 -280 -290 -280 -5 0 -55 45
-110 100 l-100 100 -210 -210 -210 -210 -202 202 -203 203 -435 -435 -435
-435 38 -38 38 -37 398 396 399 396 201 -201 201 -201 210 210 210 210 100
-100 c55 -55 105 -100 110 -100 6 0 136 126 290 280 l280 280 137 -137 138
-138 130 130 130 130 63 -63 63 -62 294 246 293 246 145 -145 145 -145 228
231 228 232 1 -82 0 -83 55 0 55 0 0 170 0 170 -175 0 -175 0 0 -50z"/>
<path d="M3848 2093 l-178 -178 -99 99 c-69 69 -103 96 -112 90 -8 -4 -95 -75
-194 -158 -99 -83 -188 -157 -198 -165 -16 -13 -22 -10 -63 30 l-44 43 -88
-87 c-48 -48 -92 -87 -97 -87 -6 0 -53 43 -105 95 l-95 95 -202 -202 -203
-203 -73 73 -72 72 -145 -145 c-80 -80 -149 -145 -155 -145 -6 0 -73 63 -150
140 l-140 140 -293 -292 -293 -293 3 -177 3 -178 33 -32 32 -33 1718 -3 c1197
-2 1728 0 1754 8 23 6 46 23 60 43 21 30 23 44 27 200 l3 167 -221 0 -221 0
-1 53 c-1 28 -5 312 -8 630 l-6 577 -177 -177z m522 -1287 c0 -85 -3 -105 -16
-110 -9 -3 -773 -6 -1698 -6 -1295 0 -1685 3 -1694 12 -8 8 -12 47 -12 110 l0
98 1710 0 1710 0 0 -104z"/>
<path d="M1877 103 c-4 -3 -7 -28 -7 -55 l0 -48 790 0 790 0 0 55 0 55 -783 0
c-431 0 -787 -3 -790 -7z"/>
</g>
</svg>
