<?xml version="1.0" standalone="no"?>
<!DOCTYPE svg PUBLIC "-//W3C//DTD SVG 20010904//EN"
 "http://www.w3.org/TR/2001/REC-SVG-20010904/DTD/svg10.dtd">
<svg version="1.0" xmlns="http://www.w3.org/2000/svg"
 width="512.000000pt" height="512.000000pt" viewBox="0 0 512.000000 512.000000"
 preserveAspectRatio="xMidYMid meet">

<g transform="translate(0.000000,512.000000) scale(0.100000,-0.100000)"
fill="#000000" stroke="none">
<path d="M3707 4948 c-9 -7 -25 -51 -37 -98 -42 -170 -34 -155 -89 -169 -27
-7 -82 -28 -121 -47 -39 -19 -76 -34 -80 -34 -5 0 -54 27 -108 60 -55 33 -107
60 -117 60 -28 0 -165 -139 -165 -168 0 -13 27 -70 61 -125 l61 -101 -41 -85
c-22 -47 -45 -104 -50 -126 l-11 -41 -97 -23 c-54 -13 -113 -29 -130 -37 l-33
-13 0 -116 0 -116 35 -15 c27 -11 93 -14 319 -14 l284 0 -10 37 c-6 21 -8 80
-6 133 3 85 8 103 40 170 58 121 168 212 293 244 257 68 518 -100 565 -364 33
-184 -61 -378 -227 -472 l-53 -30 1 -221 c1 -152 4 -212 10 -190 8 27 16 33
58 43 28 6 84 29 126 50 l77 38 105 -64 c59 -35 113 -64 121 -64 8 0 47 32 88
72 55 53 74 78 74 98 0 14 -27 70 -61 125 l-61 98 41 86 c22 47 44 104 50 126
l11 41 114 28 c63 15 122 33 132 41 15 10 19 31 21 106 5 136 5 137 -144 173
l-122 30 -11 46 c-6 26 -29 82 -50 126 l-39 79 60 101 c32 55 59 112 59 125 0
19 -21 46 -74 97 -41 40 -81 72 -89 72 -8 0 -61 -28 -119 -63 l-104 -63 -79
38 c-44 21 -99 44 -123 50 -23 6 -46 18 -51 27 -5 9 -18 59 -30 111 -33 142
-31 140 -154 140 -67 0 -109 -4 -120 -12z"/>
<path d="M232 3710 c-18 -11 -41 -34 -52 -52 -20 -32 -20 -53 -20 -1115 l0
-1083 972 0 973 0 -115 58 c-329 166 -599 383 -827 666 -36 44 -68 87 -70 94
-9 21 -19 13 -38 -29 -32 -71 -102 -86 -145 -32 -27 35 -26 45 20 148 l41 90
-51 90 c-45 80 -109 219 -140 299 l-11 29 -54 -53 -55 -54 115 -117 c130 -131
137 -148 85 -201 -52 -51 -73 -40 -242 130 -112 111 -149 155 -154 180 -6 31
-1 38 121 162 97 99 126 134 120 147 -31 81 -78 372 -91 561 l-6 102 -172 0
c-153 0 -174 -2 -204 -20z"/>
<path d="M2365 1298 c7 -1019 7 -1023 29 -1062 11 -21 37 -47 56 -58 33 -17
86 -18 1216 -18 l1181 0 33 23 c18 12 43 35 54 50 21 28 21 29 21 1055 l0
1027 -1298 3 -1298 2 6 -1022z m1109 -440 c39 -35 42 -69 11 -106 l-27 -32
-404 0 -405 0 -24 25 c-40 39 -31 94 20 123 14 8 136 11 412 12 l392 0 25 -22z
m1206 -1 c38 -19 55 -61 40 -98 -7 -16 -21 -34 -31 -39 -10 -6 -183 -10 -423
-10 l-405 0 -20 26 c-35 44 -25 94 24 122 30 17 781 16 815 -1z m-1605 -333
c24 -10 46 -60 39 -89 -13 -51 -31 -55 -260 -55 l-213 0 -20 26 c-12 15 -21
37 -21 49 0 12 9 34 21 49 l20 26 209 0 c115 0 216 -3 225 -6z m1220 0 c8 -4
23 -20 31 -36 13 -25 13 -35 3 -59 -6 -17 -20 -34 -30 -39 -10 -6 -112 -10
-228 -10 l-210 0 -20 26 c-12 15 -21 37 -21 49 0 12 9 34 21 49 l20 26 209 0
c115 0 216 -3 225 -6z"/>
</g>
</svg>
