<?xml version="1.0" standalone="no"?>
<!DOCTYPE svg PUBLIC "-//W3C//DTD SVG 20010904//EN"
 "http://www.w3.org/TR/2001/REC-SVG-20010904/DTD/svg10.dtd">
<svg version="1.0" xmlns="http://www.w3.org/2000/svg"
 width="512.000000pt" height="512.000000pt" viewBox="0 0 512.000000 512.000000"
 preserveAspectRatio="xMidYMid meet">

<g transform="translate(0.000000,512.000000) scale(0.100000,-0.100000)"
fill="#000000" stroke="none">
<path d="M2848 4541 l-287 -156 -1 -287 c0 -159 3 -288 6 -288 8 0 535 286
558 303 15 11 16 41 14 298 l-3 285 -287 -155z"/>
<path d="M1018 3761 l-287 -156 -1 -287 c0 -159 3 -288 6 -288 8 0 535 286
558 303 15 11 16 41 14 298 l-3 287 -287 -157z"/>
<path d="M4678 3762 l-288 -157 0 -289 c0 -252 2 -287 15 -282 21 8 548 297
558 305 4 4 6 136 5 293 l-3 286 -287 -156z"/>
<path d="M2848 2691 l-287 -156 -1 -292 0 -291 281 153 c155 84 285 157 290
162 5 5 8 134 7 294 l-3 285 -287 -155z"/>
<path d="M1015 1636 l-280 -154 -3 -291 -2 -291 82 45 c46 25 176 96 290 158
l208 112 0 288 c0 158 -3 287 -7 287 -5 -1 -134 -70 -288 -154z"/>
<path d="M4680 1639 c-151 -82 -278 -153 -283 -158 -4 -4 -6 -136 -5 -292 l3
-286 285 156 285 156 3 288 c1 158 -1 287 -5 287 -5 0 -132 -68 -283 -151z"/>
<path d="M2850 810 l-285 -155 -3 -292 -2 -291 281 153 c155 84 285 157 290
162 5 5 8 133 7 294 l-3 284 -285 -155z"/>
</g>
</svg>
