<?xml version="1.0" standalone="no"?>
<!DOCTYPE svg PUBLIC "-//W3C//DTD SVG 20010904//EN"
 "http://www.w3.org/TR/2001/REC-SVG-20010904/DTD/svg10.dtd">
<svg version="1.0" xmlns="http://www.w3.org/2000/svg"
 width="512.000000pt" height="512.000000pt" viewBox="0 0 512.000000 512.000000"
 preserveAspectRatio="xMidYMid meet">

<g transform="translate(0.000000,512.000000) scale(0.100000,-0.100000)"
fill="#000000" stroke="none">
<path d="M2126 2694 c-36 -35 -28 -91 15 -114 27 -15 77 -3 89 20 16 29 12 75
-8 93 -23 21 -76 22 -96 1z"/>
<path d="M2125 1565 c-28 -27 -31 -45 -14 -78 16 -30 28 -37 65 -37 39 0 64
27 64 68 0 66 -69 94 -115 47z"/>
<path d="M1710 1186 l0 -86 70 0 70 0 0 63 0 63 -57 18 c-32 10 -64 21 -70 23
-10 4 -13 -16 -13 -81z"/>
<path d="M3333 1247 l-63 -21 0 -63 0 -63 70 0 70 0 0 85 c0 47 -3 85 -7 84
-5 0 -36 -10 -70 -22z"/>
<path d="M2260 813 l0 -348 -83 -83 -82 -82 -823 0 -822 0 0 40 c0 51 -16 85
-47 99 -32 15 -324 15 -356 0 -40 -18 -47 -49 -47 -208 0 -162 8 -203 46 -220
33 -15 325 -15 357 0 31 14 47 48 47 99 l0 40 850 2 850 3 125 125 125 125 0
372 0 373 -54 0 c-30 0 -61 3 -70 6 -14 6 -16 -29 -16 -343z"/>
<path d="M2783 1153 l-63 -4 0 -372 0 -372 125 -125 125 -125 850 -3 850 -2 0
-40 c0 -51 16 -85 47 -99 32 -15 324 -15 356 0 40 18 47 49 47 214 0 165 -7
196 -47 214 -32 15 -324 15 -356 0 -31 -14 -47 -48 -47 -99 l0 -40 -823 0
-822 0 -83 83 -82 82 0 348 c0 191 -3 346 -7 345 -5 -1 -36 -3 -70 -5z"/>
<path d="M29 922 c-31 -26 -31 -78 0 -104 22 -17 59 -18 772 -18 l749 0 0 70
0 70 -749 0 c-713 0 -750 -1 -772 -18z"/>
<path d="M3570 870 l0 -70 749 0 c713 0 750 1 772 18 31 26 31 78 0 104 -22
17 -59 18 -772 18 l-749 0 0 -70z"/>
</g>
</svg>
