<svg xmlns="http://www.w3.org/2000/svg" xmlns:xlink="http://www.w3.org/1999/xlink" viewBox="0 0 650 500"><defs><style>.cls-1{isolation:isolate;}.cls-2{fill:#fff;}.cls-11,.cls-3{fill:#714fa1;}.cls-3{opacity:0.15;}.cls-4{fill:url(#linear-gradient);}.cls-5{fill:url(#linear-gradient-2);}.cls-6{fill:url(#linear-gradient-3);}.cls-46,.cls-47,.cls-7,.cls-70,.cls-87{fill:none;}.cls-7,.cls-70{stroke:#fff;}.cls-7,.cls-87{stroke-linecap:round;}.cls-46,.cls-47,.cls-7,.cls-70{stroke-miterlimit:10;}.cls-8{fill:url(#linear-gradient-4);}.cls-9{fill:url(#linear-gradient-5);}.cls-10{fill:#bfcbff;}.cls-12{fill:url(#linear-gradient-6);}.cls-13,.cls-14,.cls-15,.cls-16,.cls-17,.cls-18,.cls-26,.cls-41,.cls-56,.cls-59,.cls-60{mix-blend-mode:multiply;}.cls-13{fill:url(#linear-gradient-7);}.cls-14{fill:url(#linear-gradient-8);}.cls-15{fill:url(#linear-gradient-9);}.cls-16{fill:url(#linear-gradient-10);}.cls-17{fill:url(#linear-gradient-11);}.cls-18{fill:url(#linear-gradient-12);}.cls-19{fill:#09085f;}.cls-20{fill:#ff928a;}.cls-21{fill:#ffa49a;}.cls-22{fill:#ff8189;}.cls-23{fill:url(#linear-gradient-13);}.cls-24{fill:url(#linear-gradient-14);}.cls-25{fill:#ffc794;}.cls-26,.cls-41,.cls-85{opacity:0.5;}.cls-26{fill:url(#linear-gradient-15);}.cls-27{fill:url(#linear-gradient-16);}.cls-28{fill:#0e085d;}.cls-29{fill:#32338f;}.cls-30{fill:#8fabd8;}.cls-31{fill:#ef9795;}.cls-32{fill:#222842;}.cls-33{fill:url(#linear-gradient-17);}.cls-34{fill:url(#linear-gradient-18);}.cls-35{fill:url(#linear-gradient-19);}.cls-36{fill:url(#linear-gradient-20);}.cls-37{fill:url(#linear-gradient-21);}.cls-38{fill:url(#linear-gradient-22);}.cls-39{fill:url(#linear-gradient-23);}.cls-40{fill:url(#linear-gradient-24);}.cls-41{fill:url(#linear-gradient-25);}.cls-42{fill:url(#linear-gradient-26);}.cls-43{fill:url(#linear-gradient-27);}.cls-44{fill:url(#linear-gradient-28);}.cls-45{fill:url(#linear-gradient-29);}.cls-46{stroke:url(#linear-gradient-30);}.cls-47{stroke:url(#linear-gradient-31);}.cls-48{fill:url(#linear-gradient-32);}.cls-49{fill:url(#linear-gradient-33);}.cls-50{fill:url(#linear-gradient-34);}.cls-51{fill:url(#linear-gradient-35);}.cls-52{fill:url(#linear-gradient-36);}.cls-53{fill:url(#linear-gradient-37);}.cls-54{fill:url(#linear-gradient-38);}.cls-55{fill:url(#linear-gradient-39);}.cls-56{fill:url(#linear-gradient-40);}.cls-57{fill:#b6c1dc;}.cls-58{fill:#192139;}.cls-59{fill:url(#linear-gradient-41);}.cls-60{fill:url(#linear-gradient-42);}.cls-61{fill:#e8e5ec;}.cls-62{fill:url(#linear-gradient-43);}.cls-63{fill:url(#linear-gradient-44);}.cls-64{fill:url(#linear-gradient-45);}.cls-65{fill:url(#linear-gradient-46);}.cls-66{fill:url(#linear-gradient-47);}.cls-67{fill:url(#linear-gradient-48);}.cls-68{fill:url(#linear-gradient-49);}.cls-69{fill:url(#linear-gradient-50);}.cls-71{fill:url(#linear-gradient-51);}.cls-72{fill:url(#linear-gradient-52);}.cls-73{fill:#eae8e6;}.cls-74{fill:url(#linear-gradient-53);}.cls-75{fill:url(#linear-gradient-54);}.cls-76{fill:url(#linear-gradient-55);}.cls-77{fill:url(#linear-gradient-56);}.cls-78{fill:url(#linear-gradient-57);}.cls-79{fill:url(#linear-gradient-58);}.cls-80{fill:url(#linear-gradient-59);}.cls-81{fill:url(#linear-gradient-60);}.cls-82{fill:url(#linear-gradient-61);}.cls-83{fill:url(#linear-gradient-62);}.cls-84{fill:url(#linear-gradient-63);}.cls-86{fill:#dee2f9;}.cls-87{stroke:#232230;stroke-linejoin:round;}</style><linearGradient id="linear-gradient" x1="141.47" y1="-15622.57" x2="141.47" y2="-16003.93" gradientTransform="matrix(0.71, 0.71, 0.71, -0.71, 11336.59, -11303.32)" gradientUnits="userSpaceOnUse"><stop offset="0" stop-color="#dfedf2"/><stop offset="1" stop-color="#e8f8ff"/></linearGradient><linearGradient id="linear-gradient-2" x1="502.69" y1="-15925.55" x2="502.69" y2="-16005.44" gradientTransform="matrix(1, 0, 0, -1, 0, -15881.89)" xlink:href="#linear-gradient"/><linearGradient id="linear-gradient-3" x1="597.47" y1="-16188.36" x2="597.47" y2="-16569.72" gradientTransform="matrix(1, 0, 0, -1, 0, -15881.89)" xlink:href="#linear-gradient"/><linearGradient id="linear-gradient-4" x1="515.75" y1="-16030.54" x2="538.21" y2="-16006.57" gradientTransform="matrix(1, 0, 0, -1, 0, -15881.89)" xlink:href="#linear-gradient"/><linearGradient id="linear-gradient-5" x1="561.92" y1="-16303.42" x2="576.67" y2="-16287.67" gradientTransform="matrix(1, 0, 0, -1, 0, -15881.89)" xlink:href="#linear-gradient"/><linearGradient id="linear-gradient-6" x1="812.1" y1="276.05" x2="812.6" y2="276.05" gradientUnits="userSpaceOnUse"><stop offset="0" stop-color="#714fa1"/><stop offset="1" stop-color="#5ca5f7"/></linearGradient><linearGradient id="linear-gradient-7" x1="358.56" y1="317.34" x2="327.06" y2="287.09" gradientUnits="userSpaceOnUse"><stop offset="0" stop-color="#cbe1f2" stop-opacity="0"/><stop offset="1" stop-color="#aed2ed"/></linearGradient><linearGradient id="linear-gradient-8" x1="293.97" y1="229.96" x2="318.72" y2="268.46" xlink:href="#linear-gradient-7"/><linearGradient id="linear-gradient-9" x1="354.92" y1="226.63" x2="413.59" y2="214.3" xlink:href="#linear-gradient-7"/><linearGradient id="linear-gradient-10" x1="280.45" y1="219.59" x2="236.95" y2="213.34" xlink:href="#linear-gradient-7"/><linearGradient id="linear-gradient-11" x1="210.04" y1="328.27" x2="255.54" y2="340.27" gradientUnits="userSpaceOnUse"><stop offset="0" stop-color="#714fa1" stop-opacity="0"/><stop offset="1" stop-color="#aed2ed"/></linearGradient><linearGradient id="linear-gradient-12" x1="445.38" y1="329.14" x2="397.88" y2="339.39" xlink:href="#linear-gradient-7"/><linearGradient id="linear-gradient-13" x1="434.93" y1="450.55" x2="434.93" y2="389.15" gradientUnits="userSpaceOnUse"><stop offset="0" stop-color="#283770"/><stop offset="1" stop-color="#141049"/></linearGradient><linearGradient id="linear-gradient-14" x1="456.5" y1="315.7" x2="456.5" y2="407.3" gradientUnits="userSpaceOnUse"><stop offset="0" stop-color="#283770"/><stop offset="1" stop-color="#141a5a"/></linearGradient><linearGradient id="linear-gradient-15" x1="472.73" y1="325.3" x2="481.86" y2="325.3" gradientUnits="userSpaceOnUse"><stop offset="0" stop-color="#49a5f7"/><stop offset="1" stop-color="#1c6ceb"/></linearGradient><linearGradient id="linear-gradient-16" x1="473.41" y1="295.09" x2="473.41" y2="348.24" xlink:href="#linear-gradient-15"/><linearGradient id="linear-gradient-17" x1="306.98" y1="199.74" x2="273.41" y2="216.75" gradientTransform="matrix(1, 0, 0, 1, 0, 0)" xlink:href="#linear-gradient"/><linearGradient id="linear-gradient-18" x1="338.03" y1="189.95" x2="338.03" y2="197.03" gradientTransform="matrix(1, 0, 0, 1, 0, 0)" xlink:href="#linear-gradient"/><linearGradient id="linear-gradient-19" x1="338.45" y1="194.57" x2="338.45" y2="201.65" gradientTransform="matrix(1, 0, 0, 1, 0, 0)" xlink:href="#linear-gradient"/><linearGradient id="linear-gradient-20" x1="338.87" y1="199.18" x2="338.87" y2="206.26" gradientTransform="matrix(1, 0, 0, 1, 0, 0)" xlink:href="#linear-gradient"/><linearGradient id="linear-gradient-21" x1="339.28" y1="203.8" x2="339.28" y2="210.88" gradientTransform="matrix(1, 0, 0, 1, 0, 0)" xlink:href="#linear-gradient"/><linearGradient id="linear-gradient-22" x1="339.69" y1="208.41" x2="339.69" y2="215.49" gradientTransform="matrix(1, 0, 0, 1, 0, 0)" xlink:href="#linear-gradient"/><linearGradient id="linear-gradient-23" x1="340.11" y1="213.02" x2="340.11" y2="220.11" gradientTransform="matrix(1, 0, 0, 1, 0, 0)" xlink:href="#linear-gradient"/><linearGradient id="linear-gradient-24" x1="290.93" y1="405.25" x2="290.93" y2="277" xlink:href="#linear-gradient-14"/><linearGradient id="linear-gradient-25" x1="290.93" y1="313.56" x2="301.84" y2="313.56" xlink:href="#linear-gradient-14"/><linearGradient id="linear-gradient-26" x1="307.42" y1="407.1" x2="307.42" y2="276.88" xlink:href="#linear-gradient-14"/><linearGradient id="linear-gradient-27" x1="305.99" y1="225.82" x2="299.99" y2="271.98" gradientUnits="userSpaceOnUse"><stop offset="0" stop-color="#cbe1f2"/><stop offset="1" stop-color="#aed2ed"/></linearGradient><linearGradient id="linear-gradient-28" x1="319.78" y1="227.61" x2="313.78" y2="273.77" xlink:href="#linear-gradient-27"/><linearGradient id="linear-gradient-29" x1="304.26" y1="184.46" x2="293.62" y2="251.42" gradientUnits="userSpaceOnUse"><stop offset="0" stop-color="#272e79"/><stop offset="1" stop-color="#0b1b38"/></linearGradient><linearGradient id="linear-gradient-30" x1="259.53" y1="441.01" x2="259.53" y2="420.97" gradientUnits="userSpaceOnUse"><stop offset="0" stop-color="#51b9f8"/><stop offset="1" stop-color="#71d2f9"/></linearGradient><linearGradient id="linear-gradient-31" x1="331" y1="441.01" x2="331" y2="420.97" xlink:href="#linear-gradient-30"/><linearGradient id="linear-gradient-32" x1="498.9" y1="246.12" x2="552.28" y2="281.37" gradientUnits="userSpaceOnUse"><stop offset="0" stop-color="#71d2f9"/><stop offset="1" stop-color="#51b9f8"/></linearGradient><linearGradient id="linear-gradient-33" x1="523.88" y1="245.89" x2="523.88" y2="275.79" xlink:href="#linear-gradient-32"/><linearGradient id="linear-gradient-34" x1="508.8" y1="245.89" x2="508.8" y2="275.79" xlink:href="#linear-gradient-32"/><linearGradient id="linear-gradient-35" x1="538.97" y1="245.89" x2="538.97" y2="275.79" xlink:href="#linear-gradient-32"/><linearGradient id="linear-gradient-36" x1="42.45" y1="427.55" x2="42.45" y2="441.94" gradientTransform="matrix(-1, 0, 0, 1, 196.59, 0)" gradientUnits="userSpaceOnUse"><stop offset="0" stop-color="#1a2f79"/><stop offset="1" stop-color="#160545"/></linearGradient><linearGradient id="linear-gradient-37" x1="503.86" y1="425.43" x2="503.86" y2="277.41" gradientTransform="translate(-366.38)" xlink:href="#linear-gradient-14"/><linearGradient id="linear-gradient-38" x1="88.69" y1="428.18" x2="88.69" y2="442.7" xlink:href="#linear-gradient-36"/><linearGradient id="linear-gradient-39" x1="25.22" y1="252.78" x2="25.22" y2="311.07" gradientTransform="matrix(-1, 0, 0, 1, 196.59, 0)" gradientUnits="userSpaceOnUse"><stop offset="0" stop-color="#6ec4f7"/><stop offset="1" stop-color="#398ef6"/></linearGradient><linearGradient id="linear-gradient-40" x1="29.81" y1="270.37" x2="29.81" y2="279.47" xlink:href="#linear-gradient-39"/><linearGradient id="linear-gradient-41" x1="484.49" y1="244.77" x2="495.31" y2="252.57" gradientTransform="translate(-335.43)" gradientUnits="userSpaceOnUse"><stop offset="0" stop-color="#f4cfb3"/><stop offset="1" stop-color="#f2bb9b"/></linearGradient><linearGradient id="linear-gradient-42" x1="60.26" y1="266.45" x2="60.26" y2="302.16" xlink:href="#linear-gradient-39"/><linearGradient id="linear-gradient-43" x1="64.07" y1="252.78" x2="64.07" y2="311.07" xlink:href="#linear-gradient-39"/><linearGradient id="linear-gradient-44" x1="190.17" y1="-16067.15" x2="131.29" y2="-16088.15" gradientTransform="matrix(1, 0, 0, -1, 0, -15881.89)" gradientUnits="userSpaceOnUse"><stop offset="0" stop-color="#b6dff6"/><stop offset="1" stop-color="#ddeaf7"/></linearGradient><linearGradient id="linear-gradient-45" x1="187.88" y1="-16069.65" x2="129" y2="-16090.65" xlink:href="#linear-gradient-44"/><linearGradient id="linear-gradient-46" x1="190.47" y1="-16076.92" x2="131.59" y2="-16097.92" xlink:href="#linear-gradient-44"/><linearGradient id="linear-gradient-47" x1="186.11" y1="-16073.65" x2="127.24" y2="-16094.65" xlink:href="#linear-gradient-44"/><linearGradient id="linear-gradient-48" x1="140.51" y1="191.92" x2="144.26" y2="204.55" xlink:href="#linear-gradient-32"/><linearGradient id="linear-gradient-49" x1="139.29" y1="192.28" x2="143.04" y2="204.91" xlink:href="#linear-gradient-32"/><linearGradient id="linear-gradient-50" x1="138.07" y1="192.65" x2="141.82" y2="205.27" xlink:href="#linear-gradient-32"/><linearGradient id="linear-gradient-51" x1="273.78" y1="136.97" x2="292.83" y2="152.96" xlink:href="#linear-gradient-32"/><linearGradient id="linear-gradient-52" x1="277.2" y1="132.04" x2="296.25" y2="148.04" xlink:href="#linear-gradient-32"/><linearGradient id="linear-gradient-53" x1="476.14" y1="206.41" x2="494.64" y2="239.41" xlink:href="#linear-gradient-32"/><linearGradient id="linear-gradient-54" x1="475.14" y1="206.97" x2="493.64" y2="239.97" xlink:href="#linear-gradient-32"/><linearGradient id="linear-gradient-55" x1="474.26" y1="207.46" x2="492.76" y2="240.46" xlink:href="#linear-gradient-32"/><linearGradient id="linear-gradient-56" x1="478.5" y1="205.08" x2="497" y2="238.08" xlink:href="#linear-gradient-32"/><linearGradient id="linear-gradient-57" x1="226.47" y1="174.39" x2="191.47" y2="114.52" gradientTransform="matrix(1, 0, 0, 1, 0, 0)" xlink:href="#linear-gradient-44"/><linearGradient id="linear-gradient-58" x1="226.66" y1="174.28" x2="191.66" y2="114.4" gradientTransform="matrix(1, 0, 0, 1, 0, 0)" xlink:href="#linear-gradient-44"/><linearGradient id="linear-gradient-59" x1="227.88" y1="173.56" x2="192.88" y2="113.69" gradientTransform="matrix(1, 0, 0, 1, 0, 0)" xlink:href="#linear-gradient-44"/><linearGradient id="linear-gradient-60" x1="237.16" y1="168.14" x2="202.16" y2="108.26" gradientTransform="matrix(1, 0, 0, 1, 0, 0)" xlink:href="#linear-gradient-44"/><linearGradient id="linear-gradient-61" x1="244.46" y1="163.87" x2="209.46" y2="104" gradientTransform="matrix(1, 0, 0, 1, 0, 0)" xlink:href="#linear-gradient-44"/><linearGradient id="linear-gradient-62" x1="215.78" y1="180.64" x2="180.78" y2="120.77" gradientTransform="matrix(1, 0, 0, 1, 0, 0)" xlink:href="#linear-gradient-44"/><linearGradient id="linear-gradient-63" x1="208.47" y1="184.91" x2="173.47" y2="125.03" gradientTransform="matrix(1, 0, 0, 1, 0, 0)" xlink:href="#linear-gradient-44"/></defs><g class="cls-1"><g id="BACKGROUND"><rect class="cls-2" width="650" height="500"/></g><g id="OBJECTS"><path class="cls-3" d="M312.67,71.4C172.07,71.4,58.1,185.38,58.1,326A253.45,253.45,0,0,0,85.46,440.9H539.88A253.45,253.45,0,0,0,567.24,326C567.24,185.38,453.26,71.4,312.67,71.4Z" transform="translate(0 0)"/><circle class="cls-4" cx="141.47" cy="91.87" r="19.11" transform="translate(-23.53 126.94) rotate(-45)"/><circle class="cls-5" cx="502.69" cy="117.23" r="4"/><circle class="cls-2" cx="443.04" cy="134.51" r="4"/><circle class="cls-6" cx="597.47" cy="374.76" r="11.2"/><circle class="cls-2" cx="554.33" cy="245.39" r="30.42" transform="translate(-11.16 463.85) rotate(-45)"/><path class="cls-2" d="M91.1,415.85a14.93,14.93,0,1,1-14.92-14.92A14.92,14.92,0,0,1,91.1,415.85Z" transform="translate(0 0)"/><circle class="cls-2" cx="203.44" cy="441.01" r="22.59" transform="translate(-116.51 75.62) rotate(-16.44)"/><line class="cls-7" x1="47.76" y1="180.81" x2="144.77" y2="180.81"/><line class="cls-7" x1="527.2" y1="340.19" x2="624.2" y2="340.19"/><line class="cls-7" x1="364.55" y1="106.39" x2="461.55" y2="106.39"/><path class="cls-2" d="M99.3,376.89H95.59v-3.7a1,1,0,1,0-2,0v3.7H89.93a1,1,0,1,0,0,2h3.71v3.71a1,1,0,1,0,2,0v-3.71H99.3a1,1,0,0,0,0-2Z" transform="translate(0 0)"/><path class="cls-8" d="M531,138.52h-5.65v-5.64a1.49,1.49,0,1,0-3,0v5.64h-5.64a1.49,1.49,0,1,0,0,3h5.64v5.64a1.49,1.49,0,1,0,3,0V141.5H531a1.49,1.49,0,1,0,0-3Z" transform="translate(0 0)"/><path class="cls-9" d="M571.92,414.87h-3.7v-3.7a1,1,0,0,0-2,0v3.7h-3.71a1,1,0,0,0,0,2h3.71v3.71a1,1,0,0,0,2,0v-3.71h3.7a1,1,0,1,0,0-2Z" transform="translate(0 0)"/><rect class="cls-2" x="331.23" y="102.88" width="7.03" height="7.03" rx="0.66"/><rect class="cls-2" x="340.63" y="102.88" width="7.03" height="7.03" rx="0.66"/><rect class="cls-2" x="350.03" y="102.88" width="7.03" height="7.03" rx="0.66"/><rect class="cls-2" x="173.72" y="362.23" width="7.03" height="7.03" rx="0.66"/><rect class="cls-2" x="183.11" y="362.23" width="7.03" height="7.03" rx="0.66"/><rect class="cls-2" x="192.51" y="362.23" width="7.03" height="7.03" rx="0.66"/><rect class="cls-2" x="369.61" y="415.48" width="4.52" height="4.52" rx="0.43"/><rect class="cls-2" x="375.66" y="415.48" width="4.52" height="4.52" rx="0.43"/><rect class="cls-2" x="381.71" y="415.48" width="4.52" height="4.52" rx="0.43"/><path class="cls-2" d="M166.83,287.35v-8.44a1.49,1.49,0,0,0-1.49-1.49h-2.17a1.38,1.38,0,0,1-1.35-1.05,29.91,29.91,0,0,0-3.75-9.12,1.39,1.39,0,0,1,.18-1.73l1.53-1.53a1.5,1.5,0,0,0,0-2.11l-6-6a1.48,1.48,0,0,0-2.11,0l-1.53,1.52a1.38,1.38,0,0,1-1.72.18,30,30,0,0,0-9.12-3.76,1.36,1.36,0,0,1-1.05-1.34v-2.16a1.5,1.5,0,0,0-1.5-1.5h-8.43a1.5,1.5,0,0,0-1.5,1.5v2.16a1.36,1.36,0,0,1-1,1.34,29.68,29.68,0,0,0-9.12,3.76,1.39,1.39,0,0,1-1.73-.18l-1.52-1.52a1.48,1.48,0,0,0-2.11,0l-6,6a1.5,1.5,0,0,0,0,2.11l1.53,1.53a1.4,1.4,0,0,1,.18,1.73,29.68,29.68,0,0,0-3.76,9.12,1.36,1.36,0,0,1-1.34,1.05H99.79a1.49,1.49,0,0,0-1.49,1.49v8.44a1.49,1.49,0,0,0,1.49,1.49H102a1.36,1.36,0,0,1,1.34,1.05,29.68,29.68,0,0,0,3.76,9.12,1.4,1.4,0,0,1-.18,1.73l-1.53,1.52a1.51,1.51,0,0,0,0,2.12l6,6a1.5,1.5,0,0,0,2.11,0l1.53-1.53a1.39,1.39,0,0,1,1.72-.18,30,30,0,0,0,9.12,3.76,1.36,1.36,0,0,1,1,1.34v2.17a1.5,1.5,0,0,0,1.5,1.5h8.43a1.5,1.5,0,0,0,1.5-1.5v-2.17a1.36,1.36,0,0,1,1.05-1.34,30.23,30.23,0,0,0,9.11-3.76,1.4,1.4,0,0,1,1.73.18l1.53,1.53a1.5,1.5,0,0,0,2.11,0l6-6a1.51,1.51,0,0,0,0-2.12l-1.53-1.52a1.39,1.39,0,0,1-.18-1.73,29.91,29.91,0,0,0,3.75-9.12,1.38,1.38,0,0,1,1.34-1.05h2.18A1.49,1.49,0,0,0,166.83,287.35ZM132.56,302.9a19.77,19.77,0,1,1,19.76-19.78A19.77,19.77,0,0,1,132.56,302.9Z" transform="translate(0 0)"/><path class="cls-2" d="M463.48,206.81v-6a1.07,1.07,0,0,0-1.07-1.07h-1.55a1,1,0,0,1-.95-.75,21.51,21.51,0,0,0-2.68-6.5,1,1,0,0,1,.13-1.23l1.09-1.09a1.08,1.08,0,0,0,0-1.51l-4.26-4.25a1.05,1.05,0,0,0-1.5,0l-1.09,1.09a1,1,0,0,1-1.23.13,21.23,21.23,0,0,0-6.51-2.69,1,1,0,0,1-.75-.95v-1.55a1.06,1.06,0,0,0-1.07-1.06h-6a1.06,1.06,0,0,0-1.07,1.06V182a1,1,0,0,1-.75.95,21.3,21.3,0,0,0-6.5,2.68,1,1,0,0,1-1.24-.12l-1.08-1.09a1.06,1.06,0,0,0-1.51,0l-4.25,4.25a1.06,1.06,0,0,0,0,1.51l1.08,1.09a1,1,0,0,1,.13,1.23,21.51,21.51,0,0,0-2.68,6.5,1,1,0,0,1-1,.75h-1.55a1.07,1.07,0,0,0-1.07,1.07v6a1.06,1.06,0,0,0,1.07,1.06h1.55a1,1,0,0,1,1,.75,21.46,21.46,0,0,0,2.68,6.51,1,1,0,0,1-.12,1.23l-1.09,1.09a1.05,1.05,0,0,0,0,1.5l4.25,4.26a1.08,1.08,0,0,0,1.51,0l1.09-1.09a1,1,0,0,1,1.23-.13,21.4,21.4,0,0,0,6.5,2.68,1,1,0,0,1,.75,1v1.55a1.07,1.07,0,0,0,1.07,1.07h6a1.07,1.07,0,0,0,1.07-1.07v-1.55a1,1,0,0,1,.75-1,21.3,21.3,0,0,0,6.5-2.68,1,1,0,0,1,1.23.13l1.1,1.09a1.07,1.07,0,0,0,1.5,0l4.26-4.26a1.07,1.07,0,0,0,0-1.5l-1.09-1.09a1,1,0,0,1-.13-1.23,21.46,21.46,0,0,0,2.68-6.51,1,1,0,0,1,.95-.75h1.55A1.06,1.06,0,0,0,463.48,206.81ZM439,217.9a14.1,14.1,0,1,1,14.09-14.1A14.1,14.1,0,0,1,439,217.9Z" transform="translate(0 0)"/><path class="cls-10" d="M107.59,256.89v-5.7a1,1,0,0,0-1-1h-1.47a.91.91,0,0,1-.9-.71,20.56,20.56,0,0,0-2.54-6.17.92.92,0,0,1,.12-1.16l1-1a1,1,0,0,0,0-1.43l-4-4a1,1,0,0,0-1.43,0l-1,1a1,1,0,0,1-1.17.12A19.9,19.9,0,0,0,89,234.26a.93.93,0,0,1-.71-.91v-1.46a1,1,0,0,0-1-1H81.57a1,1,0,0,0-1,1v1.46a.93.93,0,0,1-.71.91,20.05,20.05,0,0,0-6.17,2.54.94.94,0,0,1-1.16-.12l-1-1a1,1,0,0,0-1.43,0l-4,4a1,1,0,0,0,0,1.43l1,1a.94.94,0,0,1,.12,1.16,20.3,20.3,0,0,0-2.54,6.17.93.93,0,0,1-.91.71H62.27a1,1,0,0,0-1,1v5.7a1,1,0,0,0,1,1h1.47a.93.93,0,0,1,.9.71,20.35,20.35,0,0,0,2.54,6.17.94.94,0,0,1-.12,1.17l-1,1a1,1,0,0,0,0,1.43l4,4a1,1,0,0,0,1.43,0l1-1a.94.94,0,0,1,1.17-.13,20.14,20.14,0,0,0,6.16,2.54.93.93,0,0,1,.71.91v1.47a1,1,0,0,0,1,1h5.71a1,1,0,0,0,1-1v-1.47a.93.93,0,0,1,.71-.91,20.14,20.14,0,0,0,6.16-2.54,1,1,0,0,1,1.17.12l1,1a1,1,0,0,0,1.43,0l4-4a1,1,0,0,0,0-1.43l-1-1a.94.94,0,0,1-.12-1.17,20.35,20.35,0,0,0,2.54-6.17.92.92,0,0,1,.9-.71h1.47A1,1,0,0,0,107.59,256.89Zm-23.17,9A11.85,11.85,0,1,1,96.26,254,11.85,11.85,0,0,1,84.42,265.89Z" transform="translate(0 0)"/><path class="cls-11" d="M248.4,356.59a80.54,80.54,0,1,1,0-161.08c54.31,0,88.71,71.08,90.15,74.1l3.06,6.44-3.06,6.44C337.11,285.51,302.71,356.59,248.4,356.59Zm0-131.08a50.54,50.54,0,1,0,0,101.08c25.93,0,49.35-32.12,59.68-50.54C297.75,257.64,274.33,225.51,248.4,225.51Z" transform="translate(0 0)"/><path class="cls-12" d="M401.6,356.59c-54.31,0-88.71-71.08-90.15-74.1l-3.06-6.44,3.06-6.44c1.44-3,35.84-74.1,90.15-74.1a80.54,80.54,0,1,1,0,161.08Zm-59.68-80.54c10.33,18.42,33.74,50.54,59.68,50.54a50.54,50.54,0,1,0,0-101.08C375.66,225.51,352.25,257.64,341.92,276.05Z" transform="translate(0 0)"/><path class="cls-13" d="M369.56,311.69l-18.94,23.17A160.76,160.76,0,0,1,325,305.42v0c8.32-12.09,16.91-29.34,16.91-29.34C347.68,286.32,357.5,300.85,369.56,311.69Z" transform="translate(0 0)"/><path class="cls-14" d="M325,246.7c-8.32,12.09-16.92,29.36-16.92,29.36-5.76-10.26-15.58-24.79-27.64-35.63l18.94-23.17A160.76,160.76,0,0,1,325,246.7Z" transform="translate(0 0)"/><path class="cls-15" d="M412.1,211.06l-10.5,14.45c-14.56,0-28.33,10.13-39.43,22.28l-15.41-27c14.53-13.87,33.09-25.27,54.84-25.27Z" transform="translate(0 0)"/><path class="cls-16" d="M301.35,219,279.5,239.58c-9.35-8.18-20-14.07-31.1-14.07L237.9,210l10.5-14.46C269.22,195.51,287.12,206,301.35,219Z" transform="translate(0 0)"/><path class="cls-17" d="M258.9,341.05,248.4,356.6a80.18,80.18,0,0,1-55.18-21.94l15.13-27.81A50.49,50.49,0,0,0,248.4,326.6Z" transform="translate(0 0)"/><path class="cls-18" d="M449,341.14a80.1,80.1,0,0,1-47.4,15.46l-10.49-15.55L401.6,326.6a50.42,50.42,0,0,0,36.67-15.79Z" transform="translate(0 0)"/><path class="cls-19" d="M465.05,292s1.46,9,.53,12.93a15.51,15.51,0,0,0,7.23-1.13c4.41-1.62-1.2-11.8-1.2-11.8" transform="translate(0 0)"/><path class="cls-19" d="M461,278s-.87,5,2,6.9l1-4.32" transform="translate(0 0)"/><path class="cls-20" d="M470.83,325.65l-6.38-5.52-.87.81-9.31,8.67L427,333.15a8.06,8.06,0,0,0-3.7,1.67,11.35,11.35,0,0,0-1,1.58,4.49,4.49,0,0,0,1.87.05l2.67-.56.33,1.12s23.59,3,29,2.46l.4,0c4.6-.7,18.48-10.11,18.48-10.11Z" transform="translate(0 0)"/><path class="cls-21" d="M481.6,300.59l-9.76,2.7-.43-1.21h0a21.21,21.21,0,0,0,.08-2.35,18,18,0,0,0-1-5.41l3.31-2,4.11-4.38Z" transform="translate(0 0)"/><path class="cls-22" d="M471.49,299.72a18,18,0,0,0-1-5.41l3.31-2,1.09-.28S475,297.29,471.49,299.72Z" transform="translate(0 0)"/><polygon class="cls-21" points="423.2 416.5 418.88 429.7 414.68 433.45 410.66 426.9 413.38 414.3 423.2 416.5"/><path class="cls-21" d="M480.39,284.35a27.29,27.29,0,0,0-4.09,7.07,10.33,10.33,0,0,1-6.46,6.74c-9.27,3.06-7.35-14-7.32-16.24,0-1.57-.45-7.26,5.76-8.07C474.31,273.07,480.7,275.63,480.39,284.35Z" transform="translate(0 0)"/><path class="cls-2" d="M446.75,440.51H449l4-22.16h46l4,22.16h2.21l-12.73-70.36a1.09,1.09,0,1,0-2.14.39l8.25,45.63H453.37l8.25-45.63a1.09,1.09,0,1,0-2.14-.39l-8,44.07-.39,2.19-.27,1.42-.4,2.22Z" transform="translate(0 0)"/><path class="cls-23" d="M458.49,372.56l-21.87,4.15-14.29,43.58-10.95-3,11-48.84a12.58,12.58,0,0,1,8.14-8.53l23-7.65" transform="translate(0 0)"/><polygon class="cls-21" points="435.07 411.64 436.3 416.26 438.94 425.89 439.33 428.26 443.72 428.78 447.13 424.29 446.11 412.52 446.11 412.52 446.01 411.33 435.07 411.64"/><path class="cls-24" d="M487.16,348.15l-9.85-2.51-14.59,4.24c-4.37,1-11.86,1.74-23,4.16h0s-16.3,1.91-16,15.7c0,1.73,9.25,44.56,9.25,44.56l13.23-2L444.07,372c8.31.64,28.72,1.8,37.1-1.58C494.67,365,487.16,348.15,487.16,348.15Z" transform="translate(0 0)"/><path class="cls-25" d="M480.92,298.36s6.21,7.15,7.89,16c1.31,6.95-.68,16.59-.95,22.82-.24,5.52-.16,6.31.55,9.68.35,1.64,1,4,0,5.11-.64-.85-15.37-1.63-25.71-2.11,0,0,2.27-5.24,2.33-7.92.13-5.52-1.7-16.78-1.56-22.12.15-5.5,1.79-7.08,3.7-9.89a67.87,67.87,0,0,0,4.22-7.88A18.76,18.76,0,0,0,480.92,298.36Z" transform="translate(0 0)"/><path class="cls-26" d="M481.86,319.11s-1.46,8.58-2.09,11.43l-7,.95Z" transform="translate(0 0)"/><path class="cls-21" d="M470,322.34l-4.23-2.28c-.22.53-5.6,12.95-5.6,12.95-10.8-2.79-25.76-3.83-25.76-3.83s-5.63,0-7.76.27-4.92,2.2-6.16,3.47c-.74.76-2.57,3.38-2.57,3.38a4.46,4.46,0,0,0,3.11-.44c1.4-.87,2.68-1.77,2.68-1.77l3.51-.95a2.89,2.89,0,0,1,2.1.23,8.37,8.37,0,0,0,2.15.72,20.85,20.85,0,0,0,4.25.49c6.69,2.63,24.65,12,29.59,9.8,3.72-1.63,8.25-9.81,10.64-14.55,1-2,1.63-3.41,1.63-3.41Z" transform="translate(0 0)"/><path class="cls-27" d="M483.33,310.52s-1.15,11-4.48,17.71c0,0-10.33-2-15.36-5.91a93.68,93.68,0,0,1,7.26-14.79" transform="translate(0 0)"/><path class="cls-19" d="M461,278a6.48,6.48,0,0,0,4.09,5.71,30.58,30.58,0,0,0,7.74,1.85,3.9,3.9,0,0,1,3.07,1.08c1.34,1.33,3.28,6,3.39,10.29a17.61,17.61,0,0,1-.93,6.72s8.54.07,13-4.26a40.72,40.72,0,0,1-5.49-13.83c-1.42-7.77-3.28-16.22-11.9-13.76C460.94,268.78,461,278,461,278Z" transform="translate(0 0)"/><path class="cls-21" d="M472.27,287.16s-.82-2.67,1.17-3.18c3.95-1,3.18,6.68,1.43,6.64S472.27,287.16,472.27,287.16Z" transform="translate(0 0)"/><path class="cls-28" d="M420,426.25s-1.67,2.18-9.36.65c0,0-12.41,4.54-14,5.15-2.31.88-3.12,3.14,1,3.14h22.07a1.85,1.85,0,0,0,2-1.74C422,432,421.27,427.85,420,426.25Z" transform="translate(0 0)"/><rect class="cls-2" x="372.87" y="339.02" width="72.47" height="4.93"/><rect class="cls-29" x="407.97" y="343.94" width="2.28" height="96.56" transform="translate(818.21 784.45) rotate(180)"/><path class="cls-29" d="M384.19,435.19H434a0,0,0,0,1,0,0v1.72a3.61,3.61,0,0,1-3.61,3.61H387.8a3.61,3.61,0,0,1-3.61-3.61v-1.72A0,0,0,0,1,384.19,435.19Z" transform="translate(818.21 875.69) rotate(180)"/><path class="cls-29" d="M401.84,435.19h14.25a1.89,1.89,0,0,0-1.89-1.89H403.73a1.89,1.89,0,0,0-1.89,1.89Z" transform="translate(0 0)"/><path class="cls-21" d="M462.44,287.93s-1,4.76-.63,5.29,2.18-.06,2.18-.06" transform="translate(0 0)"/><path class="cls-28" d="M446.94,422.14a24.32,24.32,0,0,1,2.08,3.79c.85,2,.26,6-3.25,8.18-2.5,1.54-4,5.82-5.58,6.4H427.37s-3.38-2.36,4.18-5c3.77-2.63,7.39-9.57,7.39-9.57a3.24,3.24,0,0,0,3.43.66C447.13,424.72,446.94,422.14,446.94,422.14Z" transform="translate(0 0)"/><path class="cls-2" d="M504,327.32c-3.1.39-3.49,9.65-7.94,19.16a16.4,16.4,0,0,1-7.37,6.76c-5.36,2.54-8.45.62-13.8,2.41-3.63,1.22-7.82,7.41-10.14,11.27a6.45,6.45,0,0,1-5.51,3.12h0a3.34,3.34,0,0,0-3.33,3.34h0a3.33,3.33,0,0,0,3.33,3.33H493.6a6.2,6.2,0,0,0,2-.39c9.67-4.5,11.41-26.44,11.83-35.29C507.84,331.7,508.06,326.81,504,327.32Z" transform="translate(0 0)"/><path class="cls-29" d="M441.13,336.84l-32.68-.76-11.1-30.9A1.24,1.24,0,0,0,395,306l10.32,33h37.93A2.18,2.18,0,0,0,441.13,336.84Z" transform="translate(0 0)"/><path class="cls-2" d="M385.13,320.19c-4.65,5.62,0,10.11,0,10.11S389.77,325.81,385.13,320.19Z" transform="translate(0 0)"/><path class="cls-2" d="M381.25,321c-2.12,7,3.9,9.33,3.9,9.33S387.7,324.36,381.25,321Z" transform="translate(0 0)"/><path class="cls-2" d="M389,321c2.12,7-3.9,9.33-3.9,9.33S382.58,324.36,389,321Z" transform="translate(0 0)"/><path class="cls-2" d="M392.33,323.2c-.74,7.26-7.2,7.1-7.2,7.1S385.07,323.84,392.33,323.2Z" transform="translate(0 0)"/><path class="cls-2" d="M377.92,323.2c.74,7.26,7.21,7.1,7.21,7.1S385.18,323.84,377.92,323.2Z" transform="translate(0 0)"/><polygon class="cls-30" points="389.45 339.01 380.8 339.01 379.35 328.71 390.9 328.71 389.45 339.01"/><path class="cls-31" d="M265,401.52a15.35,15.35,0,0,0,4.32,1.05l1.69-4.65-7-4.75s-.95,4.44-1.33,6.16C262.61,399.33,262.8,400.62,265,401.52Z" transform="translate(0 0)"/><path class="cls-32" d="M276,411.14a29.74,29.74,0,0,0-4.19-2.59c-2.18-2.67-2-5.32-2.57-6a23,23,0,0,1-4.27-1.28c-2.16-.9-2.4-2-2.4-2a12.79,12.79,0,0,0-5.26,6.31s8.33,7,10.68,8.88h8.85A3.1,3.1,0,0,0,276,411.14Z" transform="translate(0 0)"/><path class="cls-32" d="M311.94,407.17s1.36.87,4.75.61a24.45,24.45,0,0,0,3.25-.61,37.46,37.46,0,0,0,3.83,1.56c2.2.77,5.11,1.56,7.23,3a2.94,2.94,0,0,1,1.27,2.75H310.89S308.86,411.07,311.94,407.17Z" transform="translate(0 0)"/><path class="cls-31" d="M311.58,401.43c.22,2.34.36,5.74.36,5.74,2.6,1.85,8,0,8,0s.18-3.7.33-5.91Z" transform="translate(0 0)"/><rect class="cls-11" x="267.97" y="188.8" width="108.08" height="35.47" rx="6.99" transform="translate(-17.24 29.73) rotate(-5.15)"/><path class="cls-33" d="M300.86,214.42a7.74,7.74,0,0,1-7,8.4l-10,.91a7.2,7.2,0,0,1-7.81-6.52l-1.18-13.14a7.2,7.2,0,0,1,6.52-7.81l10.44-.93a7.33,7.33,0,0,1,8,6.64Z" transform="translate(0 0)"/><path class="cls-34" d="M308.88,197a.92.92,0,0,1-.08-1.83L367.1,190a.92.92,0,1,1,.17,1.83L309,197Z" transform="translate(0 0)"/><path class="cls-35" d="M309.29,201.65a.91.91,0,0,1-.91-.83.92.92,0,0,1,.83-1l58.31-5.25a.92.92,0,0,1,.16,1.83l-58.3,5.25Z" transform="translate(0 0)"/><path class="cls-36" d="M309.71,206.26a.91.91,0,0,1-.91-.83.93.93,0,0,1,.83-1l58.31-5.25a.92.92,0,0,1,.16,1.83l-58.3,5.25Z" transform="translate(0 0)"/><path class="cls-37" d="M310.13,210.88a.92.92,0,0,1-.92-.83.93.93,0,0,1,.83-1l58.31-5.25a.92.92,0,1,1,.17,1.83l-58.31,5.25Z" transform="translate(0 0)"/><path class="cls-38" d="M310.54,215.49a.91.91,0,0,1-.91-.83.92.92,0,0,1,.83-1l58.3-5.25a.92.92,0,1,1,.17,1.83l-58.31,5.25Z" transform="translate(0 0)"/><path class="cls-39" d="M311,220.11a.91.91,0,0,1-.91-.84.9.9,0,0,1,.83-1l58.3-5.26a.92.92,0,1,1,.17,1.83L311,220.1Z" transform="translate(0 0)"/><path class="cls-20" d="M320.07,229c0-.47.78-1.7.87-2.56s.2-2,.2-2l-.9.08-.34,0-1-2.56s-.28-1.51-.39-2.62-1.26-1.49-1.33-1c0,.19,0,.85,0,1.15-.05-.35-.1-.69-.13-1-.1-1.11-1.5-1.57-1.57-1.06a13.49,13.49,0,0,0,0,1.54c-.36-.8-1.4-1.08-1.46-.64a16.1,16.1,0,0,0-.05,2.06c-.27-.74-.92-.94-1-.38s-.57,2.1-.31,2.81a11.61,11.61,0,0,0,.91,2.21,20.19,20.19,0,0,1,1.74,3.12c.19.65-4.59,12.72-4.59,12.72a55.86,55.86,0,0,0,7.24.71S320.07,229.45,320.07,229Z" transform="translate(0 0)"/><path class="cls-21" d="M319.34,290.55l-12.61.27-16.84-3.45-7-2.33c1.53-2,3.26-7.75,4.42-12.17.85-3.18,1.4-5.68,1.4-5.68l12.65-1.35,6.07-.66s8-1.12,9.82,3.24a5.13,5.13,0,0,1,.35,2.23,57.39,57.39,0,0,0,.22,7C318.29,283.92,319.34,290.55,319.34,290.55Z" transform="translate(0 0)"/><path class="cls-40" d="M319.34,290.55l-1.19-9.12s-3.94,1.81-12.45,1.54c-8.16-.26-17.35-2.15-20.11-4.23-3.56,2.85-7.51,9.35-6.79,18.88.44,5.8.95,11.61.25,17.39-1.38,11.34-2,24.76-2.42,27.51-5.21,11-14.1,55-14.1,55s4.29,2.67,8.58,2.65c0,0,15.76-37.14,20.91-53.27,1.59-5,3.39-11,5.11-17.51s3.4-13.3,4.71-19.9a129.94,129.94,0,0,0,2.68-20.37c3.84,1,6.66,1.75,6.82,1.73C311.89,290.72,319.34,290.55,319.34,290.55Z" transform="translate(0 0)"/><path class="cls-41" d="M301.84,309.46c-1.31,6.6-3,13.45-4.71,19.9a135.87,135.87,0,0,1-6.2-31.61S298.67,306.38,301.84,309.46Z" transform="translate(0 0)"/><path class="cls-42" d="M320.44,403.71a19.68,19.68,0,0,1-9-.25s-5.89-45.49-4.68-59c0,0-7.06-18.89-11.8-33.58-.91-2.81-2.48-8.2-3.12-10.55a23.43,23.43,0,0,1,.8-15.26l26.73,5.51c1.1,10.25,4.39,41.81,4.58,56.33C324.16,364.34,320.44,403.71,320.44,403.71Z" transform="translate(0 0)"/><path class="cls-21" d="M313.36,228.12a7.79,7.79,0,0,1-6.64-1c-3.3-2.27.06-6.54.06-6.54h6.12l-.15,1.13a19.74,19.74,0,0,0,0,2A15.37,15.37,0,0,0,313.36,228.12Z" transform="translate(0 0)"/><path class="cls-22" d="M312.75,221.75a19.74,19.74,0,0,0,0,2,10.08,10.08,0,0,1-4.38-1.57s2.27-.54,3-1.57h1.54Z" transform="translate(0 0)"/><path class="cls-43" d="M313.36,228.12s4.06,5.7,5.6,10.85c1.64,5.45-1.63,27.49-1.41,32.88a60.46,60.46,0,0,1-29.47-2.07A48.06,48.06,0,0,0,287,252.6c-1.72-7.18.13-18.69,1.76-22s16.52-3.78,16.52-3.78A14.89,14.89,0,0,0,313.36,228.12Z" transform="translate(0 0)"/><path class="cls-21" d="M343.94,223.1h0l-.38-1.55s-.07-.88-.09-2.27c0-1.57-.83-1.91-1.16-1.78l0-.18c.22-1.37-.7-2-1-1.83a.66.66,0,0,0-.17.25c.08-1.63-.84-1.93-1.16-1.8a12.74,12.74,0,0,0-1,3,3,3,0,0,0-.05-.6c-.18-.72-.77-.85-1.15,0a14,14,0,0,0-1,3.64c0,.62.27,3,.27,3l-1.68.15a29.05,29.05,0,0,1,1.13,2.93c.15.71.56,2.76.56,2.76-1.06,2.83-3.54,8.58-5.59,13.06-2.64,5.76-4.85,10.82-4.85,10.82l7,7.32c2.93-4.08,3.73-7.92,5.36-15,1.36-5.87,3.05-13.33,3.48-15.49a14.69,14.69,0,0,0,1.68-3.92A5.57,5.57,0,0,0,343.94,223.1Z" transform="translate(0 0)"/><path class="cls-21" d="M327.64,245.64s6.17,10.16,6.72,11.4-1,5.72-6.64,4.47c-4.83-1.07-10.17-9.77-10.17-9.77Z" transform="translate(0 0)"/><path class="cls-44" d="M315.66,230.73a21.52,21.52,0,0,1,6,5.2,81.69,81.69,0,0,1,6.92,11,48.34,48.34,0,0,1-11.91,7.81s-7.6-9.34-9.2-15.18S311.74,228.76,315.66,230.73Z" transform="translate(0 0)"/><path class="cls-21" d="M315.1,203.78a39.83,39.83,0,0,1,3.33,9.92,7.26,7.26,0,0,1-2.91,7.1,16.48,16.48,0,0,1-2.56,1.52,6.44,6.44,0,0,1-7.38-1.26,19.66,19.66,0,0,1-3.41-4.76C297.24,206.93,308,196.5,315.1,203.78Z" transform="translate(0 0)"/><path class="cls-45" d="M314.42,197a7.78,7.78,0,0,0-4.09-3c-4.5-1.13-9.12.94-12.28,3.84h0a39.64,39.64,0,0,1-3.37,2.88,17.13,17.13,0,0,0-5.07,6.37c-3,6.63,1.82,12.23.6,14.29s-6.09,2.43-6.44,6.67,1.56,5.25,0,9.29v0a21,21,0,0,0-4.55,8.87c-2.3,10.59,9,13.14,13.9,10.2s7.91-1.26,10.38-2.24c11.77-4.65,4.29-25.82,4.55-31,0-.94,0-2,0-3.14a15,15,0,0,1,4.84-10.91C315.6,206.56,317.45,202.23,314.42,197Z" transform="translate(0 0)"/><path class="cls-21" d="M311.48,213.8c-.59-1.89-2.78-3.07-3.83-1.34s-.18,6.14,1.81,6.24S312.79,218,311.48,213.8Z" transform="translate(0 0)"/><line class="cls-46" x1="259.53" y1="420.97" x2="259.53" y2="441.01"/><line class="cls-47" x1="331" y1="420.97" x2="331" y2="441.01"/><rect class="cls-2" x="248.51" y="414.51" width="93.51" height="6.46"/><rect class="cls-2" x="497.22" y="244.27" width="53.33" height="36.68" rx="9.79"/><path class="cls-48" d="M540.76,281.46H507a10.3,10.3,0,0,1-10.29-10.29V254.06A10.3,10.3,0,0,1,507,243.77h33.75a10.31,10.31,0,0,1,10.29,10.29v17.11A10.31,10.31,0,0,1,540.76,281.46ZM507,244.77a9.3,9.3,0,0,0-9.29,9.29v17.11a9.3,9.3,0,0,0,9.29,9.29h33.75a9.3,9.3,0,0,0,9.29-9.29V254.06a9.3,9.3,0,0,0-9.29-9.29Z" transform="translate(0 0)"/><path class="cls-49" d="M518.06,279.49a1.38,1.38,0,0,1-.45-.08,1.29,1.29,0,0,1-.76-1.66l11.65-31.17a1.29,1.29,0,0,1,2.42.9l-11.66,31.17A1.28,1.28,0,0,1,518.06,279.49Z" transform="translate(0 0)"/><path class="cls-50" d="M513.3,274.1a1.45,1.45,0,0,1-1.06-.44L503.6,265a3.36,3.36,0,0,1,0-4.75l8.82-8.82a1.5,1.5,0,0,1,2.13,2.12l-8.83,8.82a.35.35,0,0,0,0,.5l8.64,8.64a1.49,1.49,0,0,1,0,2.12A1.47,1.47,0,0,1,513.3,274.1Z" transform="translate(0 0)"/><path class="cls-51" d="M534.28,274.1a1.47,1.47,0,0,1-1.06-.44,1.49,1.49,0,0,1,0-2.12l8.82-8.82a.35.35,0,0,0,0-.5l-8.63-8.64a1.5,1.5,0,0,1,2.12-2.12l8.64,8.63a3.36,3.36,0,0,1,0,4.75l-8.83,8.82A1.45,1.45,0,0,1,534.28,274.1Z" transform="translate(0 0)"/><path class="cls-11" d="M145.72,423.85l-.39,9.48s4.11,1.74,7.33,0l1.48-9.19" transform="translate(0 0)"/><path class="cls-21" d="M109.16,420.74,106.79,432s4.56,2.24,8.13.7l2.94-9.37" transform="translate(0 0)"/><path class="cls-52" d="M144,440.56h20a.39.39,0,0,0,.38-.46c-.18-.82-1.36-2.13-3.63-3.31s-8.15-3.46-8.15-3.46a22.06,22.06,0,0,1-7.33,0,5.65,5.65,0,0,0-1.4,2.89A19.78,19.78,0,0,0,144,440.56Z" transform="translate(0 0)"/><path class="cls-53" d="M128.42,310.36s-7.12,21.94-9.5,41.34-1.49,14.89-2.28,19.87c-.71,4.49-2.42,11-4.51,20.3-2.37,10.61-4.93,35.36-4.93,35.36a22.69,22.69,0,0,0,9.44,1s11.52-29.6,13.13-37.93a120.75,120.75,0,0,0,2-15.27s8.9-19.83,12.32-32.48l1.83-.52.53,34.24a126.24,126.24,0,0,0-3.31,19.68c-.83,10.35,1.95,32.59,1.95,32.59s6.57,2,8.8.45c0,0,8.19-40.82,9.63-53.69,1.31-11.75,3.75-34.65,4-39.54,1-17.2-1.46-24.55-1.46-24.55Z" transform="translate(0 0)"/><path class="cls-54" d="M115,432.35a22.45,22.45,0,0,1-8.19-.61l-.5,1.59s-3.75,1.27-5.18,2.82C99,438.5,100,440.56,100,440.56h15.52A11.26,11.26,0,0,0,115,432.35Z" transform="translate(0 0)"/><path class="cls-21" d="M177.08,304.37s-7.8,1-12.23.54c-5.14-.59-.37-5.47-.37-5.47l12.05,2.9Z" transform="translate(0 0)"/><path class="cls-55" d="M165.51,282.37c.79-.19,1.56-.39,2.28-.61,7.47-2.19,9.54-4.81,9.54-4.81-4.69-13.15-7.66-16.1-9.85-18.52-4-4.46-1,9.79-.52,10Z" transform="translate(0 0)"/><polygon class="cls-56" points="167.14 269.36 168.86 277.31 164.71 276.27 167.14 269.36"/><path class="cls-57" d="M129.65,304.4c-.25,2.13-2.93,6.29-2.91,8.73,0,.59,2,3.09,7.13,4,0,0,9.11,2.18,22.68.34,3.15-.43,9.06-1.66,10.29-2.71.85-.73-1.12-7.39-1.42-11.64-.71-9.85,1-12.11,1.12-20.54,0-.21,0-.42,0-.64.22-13,1.54-19.5.93-23.51-3-3.37-11.33-6-11.86-6.12,0,0-8.75-.07-10.65,0-4.36,1.12-12.07,3.43-15.91,10,.21,5.22-.12,11.56.51,19.7C129.68,283.2,130.75,295.34,129.65,304.4Z" transform="translate(0 0)"/><path class="cls-58" d="M164.36,232.29s.66,4.53-1.45,5.36l-.83-5" transform="translate(0 0)"/><path class="cls-21" d="M153.36,258.75c5.1-.61,2.81-5.82,2.27-6.51h0s-.85-5.54-.92-5.81L146,242.66s-.2,9.46-1.07,9.59C143.65,252.87,145.41,259.7,153.36,258.75Z" transform="translate(0 0)"/><path class="cls-59" d="M149.05,245.81a9.32,9.32,0,0,0,6.34,4.94l-.69-4.31Z" transform="translate(0 0)"/><path class="cls-21" d="M163.32,232.08s2,14.93-4.62,17.38c0,0-6.56.61-10.38-4.53-1.1-1.48-2.49-1.81-2.95-3.6-.73-2.9-1.77-8.26-.45-11.49C146.82,225.24,163.15,220.88,163.32,232.08Z" transform="translate(0 0)"/><path class="cls-58" d="M158.93,221.6s-1.54-3.55-6.26-1.87a10.94,10.94,0,0,0-5,3.64,1.7,1.7,0,0,0-2.53.57c-.79,1.07-.28,3.35-.28,3.35-7.85,1.44.08,18.12.17,18.66l.84.49c.22-2.44.15-4.67.29-6.38.05-.51.86-.81,1.05-1.17,1.55.25,3.07.23,3.94-.51,1.54-1.31,1.85-3.46,2-4.91,1.46.49,13.45,2.38,12.86-4.46a8.58,8.58,0,0,0,.72-2.13C168.15,218.39,158.93,221.6,158.93,221.6Z" transform="translate(0 0)"/><path class="cls-21" d="M148.75,242.15c-3,1.14-3.9-6.17-1.07-6.5,2.14-.25,2.22,2.74,2.22,2.74S150.45,241.5,148.75,242.15Z" transform="translate(0 0)"/><polygon class="cls-60" points="141.5 272.26 138.09 283.53 131.17 284.5 141.5 272.26"/><path class="cls-21" d="M119.31,285.45a171.15,171.15,0,0,1,7.89-18.69l11.56,6.63s-4.42,8.82-7.35,15c2.83.69,10.13,2.52,15.71,4.32a72.15,72.15,0,0,0,13.66,2.92,32.25,32.25,0,0,0-.3,4.17,285.4,285.4,0,0,1-29.14-.14,41.39,41.39,0,0,1-8.75-1.21c-2.7-.93-4.54-1.66-4.67-4.49A24.72,24.72,0,0,1,119.31,285.45Z" transform="translate(0 0)"/><path class="cls-2" d="M147.22,303.12h16v-1.57h-16a.79.79,0,0,0-.79.79h0A.78.78,0,0,0,147.22,303.12Z" transform="translate(0 0)"/><path class="cls-2" d="M155.88,303.12h38.28a1.07,1.07,0,0,0,1-.78l8.21-29.55a1,1,0,0,0-1-1.3H165.46a2,2,0,0,0-1.94,1.47l-8.18,29.44A.57.57,0,0,0,155.88,303.12Z" transform="translate(0 0)"/><path class="cls-61" d="M157.33,303.12h38.28a1.06,1.06,0,0,0,1-.78l8.21-29.55a1,1,0,0,0-1-1.3h-37A2,2,0,0,0,165,273l-8.18,29.44A.57.57,0,0,0,157.33,303.12Z" transform="translate(0 0)"/><path class="cls-21" d="M191.12,303.12s-.66,1.48-3.66,1.79l.2-1.79Z" transform="translate(0 0)"/><path class="cls-21" d="M190.42,298.1c-.06-.28-.74-.59-1.28-.41a11.23,11.23,0,0,0,.41-1.27c-.06-.78-.82-.68-1.25-.44s-1.09,1.58-1.24,1.72a4.5,4.5,0,0,0,.38-1,1.14,1.14,0,0,0-1.72-.31,16.8,16.8,0,0,0-1.42,2.16,2.4,2.4,0,0,0,.09-.46c-.11-.47-1-.64-1.58-.1a16.5,16.5,0,0,0-2.09,3.66h0c-.56,1.27-1.09,1.43-1.25,1.43h-3.15a2.58,2.58,0,0,0,1.72,1.81,20.62,20.62,0,0,0,6.62.72,4.89,4.89,0,0,0,4-1.84,24.47,24.47,0,0,0,1.12-3.57h0C189.89,299.8,190.43,298.15,190.42,298.1Z" transform="translate(0 0)"/><path class="cls-62" d="M129.06,262.28s-2.55,3.19-7.12,14.27a54.88,54.88,0,0,0,15.27,5.7s1.76-3.56,5.89-14" transform="translate(0 0)"/><path class="cls-2" d="M129.47,198.11h0a9.56,9.56,0,0,0,9.55,9.55H188a9.55,9.55,0,0,0,9.55-9.55h0a9.55,9.55,0,0,0-9.55-9.55H139A9.56,9.56,0,0,0,129.47,198.11Z" transform="translate(0 0)"/><path class="cls-63" d="M187.27,194.74H145.93a1.07,1.07,0,0,1-1.07-1.07h0a1.07,1.07,0,0,1,1.07-1.07h41.34a1.07,1.07,0,0,1,1.07,1.07h0A1.07,1.07,0,0,1,187.27,194.74Z" transform="translate(0 0)"/><path class="cls-64" d="M171.68,199.2H145.93a1.07,1.07,0,0,1-1.07-1.07h0a1.07,1.07,0,0,1,1.07-1.07h25.75a1.07,1.07,0,0,1,1.07,1.07h0A1.07,1.07,0,0,1,171.68,199.2Z" transform="translate(0 0)"/><path class="cls-65" d="M187.27,199.2h-11a1.07,1.07,0,0,1-1.07-1.07h0a1.07,1.07,0,0,1,1.07-1.07h11a1.07,1.07,0,0,1,1.07,1.07h0A1.07,1.07,0,0,1,187.27,199.2Z" transform="translate(0 0)"/><path class="cls-66" d="M165.53,203.67h-19.6a1.07,1.07,0,0,1-1.07-1.07h0a1.07,1.07,0,0,1,1.07-1.07h19.6a1.07,1.07,0,0,1,1.07,1.07h0A1.07,1.07,0,0,1,165.53,203.67Z" transform="translate(0 0)"/><path class="cls-67" d="M142.09,193.67A1.07,1.07,0,1,1,141,192.6,1.06,1.06,0,0,1,142.09,193.67Z" transform="translate(0 0)"/><path class="cls-68" d="M142.09,198.13a1.07,1.07,0,1,1-1.06-1.07A1.06,1.06,0,0,1,142.09,198.13Z" transform="translate(0 0)"/><path class="cls-69" d="M142.09,202.6a1.07,1.07,0,1,1-1.06-1.07A1.06,1.06,0,0,1,142.09,202.6Z" transform="translate(0 0)"/><path class="cls-70" d="M343.9,158.27h0a9.54,9.54,0,0,0,9.54,9.54h49a9.54,9.54,0,0,0,9.54-9.54h0a9.55,9.55,0,0,0-9.54-9.55h-49A9.55,9.55,0,0,0,343.9,158.27Z" transform="translate(0 0)"/><path class="cls-2" d="M401.69,154.89H360.35a1.07,1.07,0,0,1-1.07-1.07h0a1.07,1.07,0,0,1,1.07-1.07h41.34a1.07,1.07,0,0,1,1.07,1.07h0A1.07,1.07,0,0,1,401.69,154.89Z" transform="translate(0 0)"/><path class="cls-2" d="M386.1,159.36H360.35a1.07,1.07,0,0,1-1.07-1.07h0a1.07,1.07,0,0,1,1.07-1.07H386.1a1.07,1.07,0,0,1,1.07,1.07h0A1.07,1.07,0,0,1,386.1,159.36Z" transform="translate(0 0)"/><path class="cls-2" d="M401.69,159.36h-11a1.07,1.07,0,0,1-1.07-1.07h0a1.07,1.07,0,0,1,1.07-1.07h11a1.07,1.07,0,0,1,1.07,1.07h0A1.07,1.07,0,0,1,401.69,159.36Z" transform="translate(0 0)"/><path class="cls-2" d="M380,163.83h-19.6a1.07,1.07,0,0,1-1.07-1.07h0a1.07,1.07,0,0,1,1.07-1.07H380a1.07,1.07,0,0,1,1.07,1.07h0A1.07,1.07,0,0,1,380,163.83Z" transform="translate(0 0)"/><path class="cls-2" d="M356.52,153.82a1.07,1.07,0,1,1-1.07-1.07A1.07,1.07,0,0,1,356.52,153.82Z" transform="translate(0 0)"/><path class="cls-2" d="M356.52,158.29a1.07,1.07,0,1,1-1.07-1.07A1.07,1.07,0,0,1,356.52,158.29Z" transform="translate(0 0)"/><path class="cls-2" d="M356.52,162.76a1.07,1.07,0,1,1-1.07-1.07A1.07,1.07,0,0,1,356.52,162.76Z" transform="translate(0 0)"/><rect class="cls-2" x="270.91" y="127.79" width="28.5" height="28.5" rx="5.9"/><path class="cls-71" d="M278.55,141a1.32,1.32,0,0,1-.76.62,1.34,1.34,0,0,1,.76.61,2.66,2.66,0,0,1,.24,1.26V147a1.54,1.54,0,0,0,.31,1,1.18,1.18,0,0,0,.94.36h.35v1.83h-.84a2.82,2.82,0,0,1-2.15-.76,3.09,3.09,0,0,1-.73-2.23v-3.78c0-.59-.26-.89-.76-.89h-.56V140.7h.56c.5,0,.76-.29.76-.88V136a3.09,3.09,0,0,1,.73-2.23,2.82,2.82,0,0,1,2.15-.76h.84v1.84H280a1.21,1.21,0,0,0-.94.35,1.54,1.54,0,0,0-.31,1v3.49A2.66,2.66,0,0,1,278.55,141Z" transform="translate(0 0)"/><path class="cls-72" d="M292.63,140.7v1.87h-.57a.71.71,0,0,0-.55.22,1,1,0,0,0-.2.67v3.78a3.09,3.09,0,0,1-.73,2.23,2.86,2.86,0,0,1-2.16.76h-.85V148.4h.36a1.2,1.2,0,0,0,.95-.36,1.54,1.54,0,0,0,.32-1v-3.49a2.66,2.66,0,0,1,.23-1.27,1.28,1.28,0,0,1,.75-.6,1.29,1.29,0,0,1-.75-.61,2.64,2.64,0,0,1-.23-1.27v-3.49a1.54,1.54,0,0,0-.32-1,1.23,1.23,0,0,0-.95-.35h-.36V133h.85a2.86,2.86,0,0,1,2.16.76,3.09,3.09,0,0,1,.73,2.23v3.79a1,1,0,0,0,.2.66.68.68,0,0,0,.55.22Z" transform="translate(0 0)"/><circle class="cls-57" cx="225.44" cy="385.06" r="17.33"/><path class="cls-73" d="M223.06,378l9.78,5.64a1.68,1.68,0,0,1,0,2.91l-9.78,5.64a1.67,1.67,0,0,1-2.51-1.45V379.41A1.67,1.67,0,0,1,223.06,378Z" transform="translate(0 0)"/><path class="cls-57" d="M497.47,219.54h0l-3.5,8a1.35,1.35,0,0,1-1.25.81h-2.2a.58.58,0,0,1-.58-.58V216.61a.62.62,0,0,1,.62-.62h1.79a.71.71,0,1,0,0-1.42h-6.24a.71.71,0,1,0,0,1.42h1.79a.62.62,0,0,1,.62.62v11.14a.58.58,0,0,1-.58.58h-2.19a1.37,1.37,0,0,1-1.26-.81l-3.49-8a9.36,9.36,0,0,1-1.28-4.76,9.62,9.62,0,0,1,9.29-9.51,9.51,9.51,0,0,1,9.74,9.51A9.37,9.37,0,0,1,497.47,219.54Z" transform="translate(0 0)"/><path class="cls-74" d="M493.33,230.67h-8.17a.88.88,0,0,1-.89-.88h0a.89.89,0,0,1,.89-.89h8.17a.89.89,0,0,1,.89.89h0A.88.88,0,0,1,493.33,230.67Z" transform="translate(0 0)"/><path class="cls-75" d="M493.33,233h-8.17a.89.89,0,0,1-.89-.89h0a.89.89,0,0,1,.89-.89h8.17a.89.89,0,0,1,.89.89h0A.89.89,0,0,1,493.33,233Z" transform="translate(0 0)"/><path class="cls-76" d="M491.57,233.64a.42.42,0,0,1,.41.49,2.78,2.78,0,0,1-5.47,0,.41.41,0,0,1,.4-.49Z" transform="translate(0 0)"/><line class="cls-77" x1="489.24" y1="228.9" x2="489.24" y2="219.59"/><path class="cls-2" d="M208.1,175.87A32.9,32.9,0,1,1,241,143,32.94,32.94,0,0,1,208.1,175.87Zm0-65A32.11,32.11,0,1,0,240.21,143,32.15,32.15,0,0,0,208.1,110.86Z" transform="translate(0 0)"/><circle class="cls-2" cx="208.1" cy="142.97" r="28.26" transform="translate(-37.58 84.75) rotate(-21.16)"/><path class="cls-78" d="M210.67,143a2.57,2.57,0,1,1-2.57-2.57A2.57,2.57,0,0,1,210.67,143Z" transform="translate(0 0)"/><path class="cls-79" d="M207.82,142.46h0a.79.79,0,0,1-1.09-.31l-8.31-15a.79.79,0,0,1,.31-1.09h0a.79.79,0,0,1,1.09.31l8.32,15A.8.8,0,0,1,207.82,142.46Z" transform="translate(0 0)"/><path class="cls-80" d="M208.51,143.38h0a.8.8,0,0,1,1.14,0l7.19,7.19a.81.81,0,0,1,0,1.14h0a.81.81,0,0,1-1.14,0l-7.19-7.19A.81.81,0,0,1,208.51,143.38Z" transform="translate(0 0)"/><path class="cls-81" d="M208.28,121.35a1,1,0,0,1-1-1V117.1a1,1,0,0,1,2,0v3.25A1,1,0,0,1,208.28,121.35Z" transform="translate(0 0)"/><path class="cls-82" d="M234,144.14h-3.25a1,1,0,0,1,0-2H234a1,1,0,1,1,0,2Z" transform="translate(0 0)"/><path class="cls-83" d="M207.93,169.84a1,1,0,0,1-1-1v-3.25a1,1,0,1,1,2,0v3.25A1,1,0,0,1,207.93,169.84Z" transform="translate(0 0)"/><path class="cls-84" d="M185.48,143.8h-3.25a1,1,0,1,1,0-2h3.25a1,1,0,0,1,0,2Z" transform="translate(0 0)"/><g class="cls-85"><path class="cls-86" d="M196.94,123.79a.5.5,0,0,1-.43-.25l-1.63-2.81a.5.5,0,0,1,.19-.68.49.49,0,0,1,.68.18l1.63,2.81a.52.52,0,0,1-.19.69A.54.54,0,0,1,196.94,123.79Z" transform="translate(0 0)"/><path class="cls-86" d="M227.78,132.31a.5.5,0,0,1-.25-.93l2.81-1.63a.51.51,0,0,1,.69.18.52.52,0,0,1-.19.69L228,132.24A.47.47,0,0,1,227.78,132.31Z" transform="translate(0 0)"/><path class="cls-86" d="M220.89,166a.51.51,0,0,1-.44-.25l-1.62-2.81a.5.5,0,1,1,.87-.5l1.62,2.81a.49.49,0,0,1-.18.68A.47.47,0,0,1,220.89,166Z" transform="translate(0 0)"/><path class="cls-86" d="M185.61,156.25a.48.48,0,0,1-.43-.25.5.5,0,0,1,.18-.68l2.82-1.62a.5.5,0,0,1,.5.86l-2.82,1.63A.54.54,0,0,1,185.61,156.25Z" transform="translate(0 0)"/></g><g class="cls-85"><path class="cls-86" d="M188.6,132a.45.45,0,0,1-.25-.07l-2.82-1.62a.5.5,0,0,1-.18-.68.5.5,0,0,1,.68-.19l2.82,1.63a.5.5,0,0,1-.25.93Z" transform="translate(0 0)"/><path class="cls-86" d="M219.56,124a.47.47,0,0,1-.25-.07.49.49,0,0,1-.18-.68l1.62-2.82a.51.51,0,0,1,.69-.18.49.49,0,0,1,.18.68L220,123.72A.5.5,0,0,1,219.56,124Z" transform="translate(0 0)"/><path class="cls-86" d="M230.42,156.55a.54.54,0,0,1-.25-.06l-2.82-1.63a.5.5,0,0,1-.18-.68.5.5,0,0,1,.68-.18l2.82,1.62a.5.5,0,0,1-.25.93Z" transform="translate(0 0)"/><path class="cls-86" d="M195,165.79a.45.45,0,0,1-.25-.07.51.51,0,0,1-.19-.68l1.63-2.82a.49.49,0,0,1,.68-.18.51.51,0,0,1,.19.68l-1.63,2.82A.5.5,0,0,1,195,165.79Z" transform="translate(0 0)"/></g><line class="cls-87" x1="65.25" y1="441.01" x2="584.75" y2="441.01"/></g></g></svg>