<svg xmlns="http://www.w3.org/2000/svg" viewBox="0 0 115.56522 96.18862">
  <defs>
    <style>
      .cls-1 {
        fill: none;
      }

      .cls-2 {
        fill: #714fa1;
        fill-rule: evenodd;
      }
    </style>
  </defs>
  <title>Asset 7</title>
  <g id="Layer_2" data-name="Layer 2">
    <g id="Layer_1-2" data-name="Layer 1">
      <g id="Layer_2-2" data-name="Layer 2">
        <path class="cls-1" d="M0,0H115.56522V96.18862H0Z"/>
      </g>
      <polygon class="cls-2" points="26.568 18.809 35.967 3.088 48.648 3.088 57.783 18.809 26.568 18.809"/>
      <polygon class="cls-2" points="52.465 3.088 71.083 3.088 77.468 13.799 68.069 29.433 52.465 3.088"/>
      <polygon class="cls-2" points="79.419 17.079 88.733 32.888 82.522 43.429 63.904 43.259 79.419 17.079"/>
      <polygon class="cls-2" points="80.841 46.282 71.527 62.003 58.845 62.003 49.626 46.282 80.841 46.282"/>
      <polygon class="cls-2" points="54.68 62.003 36.146 62.003 29.94 51.462 39.339 35.828 54.68 62.003"/>
      <polygon class="cls-2" points="24.797 21.832 18.586 32.285 27.9 48.094 43.415 21.92 24.797 21.832"/>
      <g>
        <path d="M18.46329,70.22111h5.3496v-3.4336h1.52344v8.40235H23.81289v-3.4336h-5.3496v3.4336H16.93985V66.78751h1.52344Z"/>
        <path d="M34.71133,75.18986H29.21524a2.44314,2.44314,0,0,1-.69141-.11133,2.03339,2.03339,0,0,1-.69433-.36621,2.05391,2.05391,0,0,1-.53321-.66211,2.12833,2.12833,0,0,1-.21386-.999v-5.4961a.76916.76916,0,0,1,.05859-.29883.77906.77906,0,0,1,.16113-.24609.72263.72263,0,0,1,.24317-.16406.78428.78428,0,0,1,.30468-.0586h6.86133V68.311H28.60586v4.74024a.6188.6188,0,0,0,.15821.457.62727.62727,0,0,0,.46289.1582h5.48437Zm-.68554-3.4336H29.21524V70.22111h4.81055Z"/>
        <path d="M40.01993,69.78751l2.5664-3h2.08008L41.05118,71.0004,44.643,75.18986H42.57461L40.01993,72.2133l-2.543,2.97656H35.40274l3.58594-4.18946L35.391,66.78751h2.0625Z"/>
        <path d="M53.872,75.18986H52.34805v-2.0625H46.99258v2.0625H45.46914V70.98869a4.43031,4.43031,0,0,1,.31641-1.69336,3.95188,3.95188,0,0,1,.87891-1.33008,4.00124,4.00124,0,0,1,1.33008-.86719,4.427,4.427,0,0,1,1.67578-.31055h3.43359a.76983.76983,0,0,1,.29932.0586.75405.75405,0,0,1,.41015.41015.769.769,0,0,1,.0586.29883Zm-6.8794-3.58594h5.35547V68.311H49.67032q-.07032,0-.2959.02051a3.00582,3.00582,0,0,0-.52149.10254,3.26327,3.26327,0,0,0-.624.252,2.192,2.192,0,0,0-.60352.46875,2.40066,2.40066,0,0,0-.4541.74707,2.93831,2.93831,0,0,0-.17871,1.08692Z"/>
        <path d="M63.23428,68.311H59.87686v6.87891H58.35342V68.311h-3.3623V66.78751h8.24316Z"/>
        <path d="M71.94717,75.18986H66.45108a2.44314,2.44314,0,0,1-.69141-.11133,2.03339,2.03339,0,0,1-.69433-.36621,2.05391,2.05391,0,0,1-.53321-.66211,2.12833,2.12833,0,0,1-.21386-.999v-5.4961a.76916.76916,0,0,1,.05859-.29883.77906.77906,0,0,1,.16113-.24609.72263.72263,0,0,1,.24317-.16406.78428.78428,0,0,1,.30468-.0586h6.86133V68.311H65.8417v4.74024a.6188.6188,0,0,0,.15821.457.62725.62725,0,0,0,.46289.1582h5.48437Zm-.68555-3.4336H66.45108V70.22111h4.81054Z"/>
        <path d="M80.88858,75.18986h-5.4961a2.27014,2.27014,0,0,1-.4541-.04981,2.33423,2.33423,0,0,1-.48047-.15527,2.22231,2.22231,0,0,1-.4541-.27246A1.84847,1.84847,0,0,1,73.62,74.308a2.00517,2.00517,0,0,1-.2666-.55078,2.327,2.327,0,0,1-.09961-.706v-4.125a2.27016,2.27016,0,0,1,.04981-.45411,2.334,2.334,0,0,1,.15527-.48046,2.15281,2.15281,0,0,1,.27539-.45411,1.90856,1.90856,0,0,1,.40723-.38379,2.01371,2.01371,0,0,1,.54785-.2666,2.29847,2.29847,0,0,1,.70312-.09961h5.4961V68.311h-5.4961a.61883.61883,0,0,0-.457.1582.63589.63589,0,0,0-.1582.46875v4.11329a.56036.56036,0,0,0,.61523.61523h5.4961Z"/>
        <path d="M83.86514,70.22111h5.34961v-3.4336h1.52344v8.40235H89.21475v-3.4336H83.86514v3.4336H82.3417V66.78751h1.52344Z"/>
      </g>
    </g>
  </g>
</svg>
