<?xml version="1.0" standalone="no"?>
<!DOCTYPE svg PUBLIC "-//W3C//DTD SVG 20010904//EN"
 "http://www.w3.org/TR/2001/REC-SVG-20010904/DTD/svg10.dtd">
<svg version="1.0" xmlns="http://www.w3.org/2000/svg"
 width="512.000000pt" height="512.000000pt" viewBox="0 0 512.000000 512.000000"
 preserveAspectRatio="xMidYMid meet">

<g transform="translate(0.000000,512.000000) scale(0.100000,-0.100000)"
fill="#000000" stroke="none">
<path d="M2402 2727 c-177 -177 -322 -326 -322 -332 0 -5 105 -115 233 -245
241 -243 256 -262 377 -470 94 -160 134 -214 245 -328 l90 -93 -3 49 c-7 94
48 161 138 170 34 3 57 -1 86 -16 23 -12 235 -218 516 -499 421 -422 477 -482
483 -516 14 -74 -9 -140 -60 -173 -36 -23 -92 -34 -128 -23 -27 8 -19 -3 63
-86 133 -134 229 -175 358 -154 101 16 135 40 364 267 257 255 273 280 273
422 -1 121 -28 173 -162 309 -57 58 -99 96 -94 84 17 -34 13 -105 -8 -143 -22
-42 -83 -80 -130 -80 -19 0 -53 9 -75 20 -27 13 -202 181 -513 492 -401 403
-473 479 -483 515 -38 127 81 237 207 193 20 -7 -1 18 -74 88 -125 120 -182
163 -363 268 -77 45 -163 99 -192 120 -29 21 -154 138 -278 261 l-226 223
-322 -323z"/>
</g>
</svg>
