<?xml version="1.0" standalone="no"?>
<!DOCTYPE svg PUBLIC "-//W3C//DTD SVG 20010904//EN"
 "http://www.w3.org/TR/2001/REC-SVG-20010904/DTD/svg10.dtd">
<svg version="1.0" xmlns="http://www.w3.org/2000/svg"
 width="64.000000pt" height="64.000000pt" viewBox="0 0 64.000000 64.000000"
 preserveAspectRatio="xMidYMid meet">

<g transform="translate(0.000000,64.000000) scale(0.100000,-0.100000)"
fill="#000000" stroke="none">
<path d="M296 594 c-15 -15 -22 -44 -10 -44 3 0 14 5 25 11 15 7 24 7 35 -2
11 -9 14 -8 14 4 0 17 -26 47 -40 47 -5 0 -16 -7 -24 -16z"/>
<path d="M106 294 c-15 -15 -22 -44 -10 -44 3 0 14 5 25 11 15 7 24 7 35 -2
11 -9 14 -8 14 4 0 17 -26 47 -40 47 -5 0 -16 -7 -24 -16z"/>
<path d="M486 294 c-15 -15 -22 -44 -10 -44 3 0 14 5 25 11 15 7 24 7 35 -2
11 -9 14 -8 14 4 0 17 -26 47 -40 47 -5 0 -16 -7 -24 -16z"/>
</g>
</svg>
